<svg width="90" height="90" viewBox="0 0 90 90" fill="none" xmlns="http://www.w3.org/2000/svg">
  <path d="M45 5.5C50.9 5.5 56.9 8.1 60.6 12.6C65.6 10.9 71.2 11.9 75.2 15.9C79.1 19.8 80.1 25.4 78.4 30.4C82.9 34.1 85.5 40.1 85.5 46C85.5 51.9 82.9 57.9 78.4 61.6C80.1 66.6 79.1 72.2 75.2 76.1C71.2 80.1 65.6 81.1 60.6 79.4C56.9 83.9 50.9 86.5 45 86.5C39.1 86.5 33.1 83.9 29.4 79.4C24.4 81.1 18.8 80.1 14.8 76.1C10.9 72.2 9.9 66.6 11.6 61.6C7.1 57.9 4.5 51.9 4.5 46C4.5 40.1 7.1 34.1 11.6 30.4C9.9 25.4 10.9 19.8 14.8 15.9C18.8 11.9 24.4 10.9 29.4 12.6C33.1 8.1 39.1 5.5 45 5.5Z" stroke="#111111" stroke-width="4"/>
  <path d="M45 55.5V56.5" stroke="#111111" stroke-width="5" stroke-linecap="round"/>
  <path d="M45 24C38.5 24 34 28.5 34 34.2C34 35.9 35.5 37.2 37.2 37.2C38.9 37.2 40.2 35.8 40.2 34.2C40.2 31.6 42.2 30 44.9 30C47.4 30 49.6 31.5 49.6 34C49.6 36.2 48.5 37.5 46.4 39.2C43.3 41.8 40.6 44.1 40.6 49.4V50.1C40.6 51.8 42 53.2 43.7 53.2C45.4 53.2 46.8 51.8 46.8 50.1V49.6C46.8 46.8 48 45.8 50.2 44.1C53.4 41.5 55.8 38.8 55.8 34.2C55.8 28.2 50.7 24 45 24Z" fill="#111111"/>
</svg>

