<svg width="159" height="159" viewBox="0 0 159 159" fill="none" xmlns="http://www.w3.org/2000/svg">
<path d="M69.5273 42.2334C72.391 32.2006 86.6089 32.2006 89.4727 42.2334C91.6011 49.6915 99.264 54.1152 106.787 52.2295C116.908 49.6929 124.017 62.0074 116.76 69.5039C111.365 75.0762 111.365 83.9238 116.76 89.4961C124.017 96.9926 116.908 109.307 106.787 106.771C99.264 104.885 91.6011 109.309 89.4727 116.767C86.6089 126.799 72.391 126.799 69.5273 116.767C67.3989 109.309 59.736 104.885 52.2129 106.771C42.0921 109.307 34.9828 96.9926 42.2402 89.4961C47.6347 83.9238 47.6347 75.0762 42.2402 69.5039C34.9828 62.0074 42.0921 49.6929 52.2129 52.2295C59.736 54.1153 67.3989 49.6915 69.5273 42.2334Z" stroke="black" stroke-width="4"/>
<path d="M75.1179 86.9773V86.7685C75.1411 84.5528 75.3731 82.7895 75.8139 81.4787C76.2547 80.1678 76.8812 79.1064 77.6932 78.2944C78.5052 77.4824 79.4796 76.7341 80.6165 76.0497C81.3009 75.6321 81.9157 75.1391 82.4609 74.5707C83.0062 73.9906 83.4354 73.3236 83.7486 72.5696C84.0734 71.8156 84.2358 70.9803 84.2358 70.0639C84.2358 68.9271 83.969 67.9411 83.4354 67.1058C82.9018 66.2706 82.1883 65.6268 81.2951 65.1744C80.4019 64.7219 79.41 64.4957 78.3196 64.4957C77.3684 64.4957 76.4519 64.6929 75.5703 65.0874C74.6887 65.4818 73.9521 66.1024 73.3604 66.9492C72.7688 67.796 72.4266 68.9039 72.3338 70.2727H67.9489C68.0417 68.3007 68.5521 66.6128 69.4801 65.2092C70.4197 63.8055 71.6552 62.7325 73.1864 61.9901C74.7293 61.2476 76.4403 60.8764 78.3196 60.8764C80.3613 60.8764 82.1361 61.2824 83.6442 62.0945C85.1638 62.9065 86.3355 64.0201 87.1591 65.4354C87.9943 66.8506 88.4119 68.4631 88.4119 70.2727C88.4119 71.5488 88.2147 72.703 87.8203 73.7354C87.4375 74.7679 86.8807 75.6901 86.1499 76.5021C85.4306 77.3142 84.5606 78.0334 83.5398 78.6598C82.5189 79.2978 81.7011 79.9706 81.0863 80.6783C80.4715 81.3743 80.0249 82.2037 79.7464 83.1665C79.468 84.1294 79.3172 85.33 79.294 86.7685V86.9773H75.1179ZM77.3452 97.2784C76.4867 97.2784 75.7501 96.971 75.1353 96.3562C74.5205 95.7414 74.2131 95.0047 74.2131 94.1463C74.2131 93.2879 74.5205 92.5513 75.1353 91.9364C75.7501 91.3216 76.4867 91.0142 77.3452 91.0142C78.2036 91.0142 78.9402 91.3216 79.555 91.9364C80.1699 92.5513 80.4773 93.2879 80.4773 94.1463C80.4773 94.7147 80.3323 95.2367 80.0423 95.7124C79.7639 96.188 79.3868 96.5708 78.9112 96.8608C78.4472 97.1392 77.9252 97.2784 77.3452 97.2784Z" fill="black"/>
</svg>
